<?xml version="1.0" encoding="UTF-8" standalone="no"?>
<!-- Created with Inkscape (http://www.inkscape.org/) -->
<svg
   xmlns:dc="http://purl.org/dc/elements/1.1/"
   xmlns:cc="http://creativecommons.org/ns#"
   xmlns:rdf="http://www.w3.org/1999/02/22-rdf-syntax-ns#"
   xmlns:svg="http://www.w3.org/2000/svg"
   xmlns="http://www.w3.org/2000/svg"
   xmlns:sodipodi="http://sodipodi.sourceforge.net/DTD/sodipodi-0.dtd"
   xmlns:inkscape="http://www.inkscape.org/namespaces/inkscape"
   id="svg2"
   sodipodi:version="0.32"
   inkscape:version="0.46"
   width="10000"
   height="2290"
   version="1.0"
   sodipodi:docname="gpu4vision_logo.svg"
   inkscape:output_extension="org.inkscape.output.svg.inkscape"
   inkscape:export-filename="/home/markus/vmgpu/trunk/Applications/ImageSegmentation/src/Logos/gpu4vision_logo.png"
   inkscape:export-xdpi="2.322"
   inkscape:export-ydpi="2.322">
  <metadata
     id="metadata7">
    <rdf:RDF>
      <cc:Work
         rdf:about="">
        <dc:format>image/svg+xml</dc:format>
        <dc:type
           rdf:resource="http://purl.org/dc/dcmitype/StillImage" />
      </cc:Work>
    </rdf:RDF>
  </metadata>
  <defs
     id="defs5">
    <inkscape:perspective
       sodipodi:type="inkscape:persp3d"
       inkscape:vp_x="0 : 526.18109 : 1"
       inkscape:vp_y="0 : 1000 : 0"
       inkscape:vp_z="744.09448 : 526.18109 : 1"
       inkscape:persp3d-origin="372.04724 : 350.78739 : 1"
       id="perspective9" />
  </defs>
  <sodipodi:namedview
     inkscape:window-height="975"
     inkscape:window-width="1679"
     inkscape:pageshadow="2"
     inkscape:pageopacity="0.0"
     guidetolerance="10.0"
     gridtolerance="10.0"
     objecttolerance="10.0"
     borderopacity="1.0"
     bordercolor="#666666"
     pagecolor="#ffffff"
     id="base"
     showgrid="false"
     showguides="true"
     inkscape:guide-bbox="true"
     inkscape:zoom="0.12"
     inkscape:cx="4796.0999"
     inkscape:cy="1447.0394"
     inkscape:window-x="1"
     inkscape:window-y="49"
     inkscape:current-layer="svg2" />
  <path
     style="fill:#000000"
     d="M 5600.9093,2294.3376 C 5541.7113,2290.5041 5513.8553,2287.5808 5477.0414,2281.3388 C 5379.7985,2264.8505 5310.3456,2234.6077 5262.5617,2187.945 C 5235.1562,2161.1825 5218.1965,2134.407 5206.9374,2100.1269 C 5197.9307,2072.7048 5194.9025,2051.861 5194.923,2017.4287 C 5194.9375,1992.8529 5195.1828,1990.4236 5197.7578,1989.3461 C 5199.2637,1988.716 5232.0599,1986.4392 5319.4093,1980.9008 C 5367.9963,1977.8202 5381.0168,1976.9903 5397.9093,1975.8978 C 5406.4343,1975.3465 5420.8343,1974.4485 5429.9093,1973.9024 C 5438.9843,1973.3562 5449.5941,1972.6364 5453.4866,1972.3028 C 5462.2544,1971.5513 5463.9093,1972.7338 5463.9093,1979.7501 C 5463.9093,1986.2691 5466.6147,2007.5042 5468.4576,2015.4507 C 5475.633,2046.3906 5490.1199,2071.5757 5511.4093,2090.1211 C 5552.3753,2125.807 5617.6566,2142.8988 5712.9914,2142.8988 C 5785.8267,2142.8988 5845.0705,2134.3206 5893.129,2116.8159 C 5917.3755,2107.9844 5946.9107,2091.8723 5965.5889,2077.2873 C 6003.6002,2047.6059 6018.8207,2009.5161 6004.2398,1980.5623 C 5995.3153,1962.8405 5975.3357,1949.228 5940.9742,1937.4583 C 5905.6581,1925.3616 5857.5982,1915.4783 5704.9093,1888.9125 C 5564.9346,1864.5588 5473.0953,1836.5763 5422.8102,1802.96 C 5393.7016,1783.5005 5371.4092,1761.0178 5355.821,1735.3988 C 5329.6409,1692.3722 5329.4843,1636.9309 5355.3945,1584.3988 C 5367.1631,1560.5385 5381.6246,1541.1175 5404.9127,1517.8989 C 5446.6125,1476.3234 5496.8934,1445.5738 5564.1729,1420.5024 C 5618.3397,1400.3174 5687.469,1384.8877 5756.9093,1377.4835 C 5793.1472,1373.6196 5816.3933,1372.1003 5859.9093,1370.7517 C 5910.7718,1369.1754 5978.6228,1371.1384 6022.4093,1375.4528 C 6105.9465,1383.6841 6165.643,1397.6023 6216.7603,1420.7655 C 6263.1633,1441.7924 6300.9745,1473.6689 6322.8928,1510.2397 C 6333.1446,1527.3447 6341.2181,1551.1872 6343.9752,1572.4994 C 6346.4416,1591.5646 6343.5051,1635.697 6339.5021,1639.726 C 6338.4672,1640.7676 6320.3451,1641.5679 6255.2963,1643.4445 C 6209.7085,1644.7597 6149.4593,1646.5401 6121.4093,1647.401 L 6070.4093,1648.9661 L 6068.6593,1646.8217 C 6067.3849,1645.26 6066.9082,1642.873 6066.9053,1638.038 C 6066.8964,1623.4256 6061.9683,1602.9923 6055.1743,1589.3988 C 6038.0686,1555.1732 6004.8487,1535.8625 5946.0894,1525.9881 C 5917.9454,1521.2585 5905.1205,1520.4824 5854.9093,1520.4703 C 5804.9742,1520.4583 5792.4652,1521.1798 5759.4615,1525.9753 C 5694.3664,1535.4338 5640.5445,1556.2665 5619.3801,1580.1961 C 5603.5533,1598.0908 5598.646,1620.2208 5606.7575,1637.1194 C 5612.8082,1649.725 5627.5922,1661.9934 5647.0521,1670.5576 C 5684.3864,1686.9884 5750.3212,1702.5544 5862.4093,1721.3994 C 5991.7903,1743.1518 6074.8177,1762.2852 6132.4093,1783.62 C 6220.0954,1816.1033 6272.8225,1867.4942 6284.5294,1931.8854 C 6291.3308,1969.295 6283.0829,2019.0188 6263.3691,2059.4532 C 6252.2048,2082.352 6235.2327,2106.0935 6214.4409,2127.8968 C 6152.8084,2192.5274 6071.9292,2236.7123 5966.4093,2263.3981 C 5899.6835,2280.273 5841.3685,2288.5104 5753.9093,2293.4151 C 5738.7843,2294.2633 5719.8843,2295.3872 5711.9093,2295.9126 C 5687.3735,2297.529 5639.7584,2296.8534 5600.9093,2294.3376 z M 7710.9093,2295.3004 C 7707.8843,2295.0924 7691.6843,2294.2168 7674.9093,2293.3546 C 7553.7062,2287.1247 7460.1139,2266.5358 7382.4093,2229.009 C 7353.9714,2215.2751 7325.2831,2197.433 7302.4093,2179.2546 C 7288.3518,2168.0827 7261.5258,2141.3766 7251.1174,2128.1918 C 7220.1611,2088.9782 7202.2415,2046.9116 7194.3328,1994.8887 C 7191.854,1978.5838 7191.297,1935.3439 7193.3063,1915.2079 C 7201.487,1833.2238 7233.8419,1742.2176 7279.6307,1672.3988 C 7312.9819,1621.5448 7354.1686,1578.7093 7410.4093,1536.3847 C 7475.6564,1487.2824 7556.409,1445.121 7634.4093,1419.433 C 7684.5725,1402.9127 7743.5495,1389.7431 7804.4093,1381.472 C 7831.0631,1377.8496 7846.7756,1376.28 7889.9093,1372.9312 C 7920.8944,1370.5256 7979.2518,1369.5371 8017.511,1370.7698 C 8038.2194,1371.4371 8060.1681,1372.4012 8066.2859,1372.9123 C 8072.4038,1373.4235 8083.2593,1374.3383 8090.4093,1374.9453 C 8273.3997,1390.4795 8412.9972,1455.8257 8480.491,1557.5444 C 8525.4354,1625.2792 8537.4545,1710.9755 8515.8142,1809.3988 C 8493.1615,1912.4268 8445.3957,2000.9664 8373.4093,2073.3632 C 8325.0309,2122.0174 8268.4244,2162.1006 8199.0443,2196.8312 C 8070.1891,2261.3342 7923.9645,2293.1838 7746.9093,2295.312 C 7730.1343,2295.5136 7713.9343,2295.5084 7710.9093,2295.3004 z M 7827.4093,2138.8527 C 7930.8666,2131.0595 8029.5366,2094.4856 8101.4093,2037.2896 C 8115.51,2026.0683 8145.0056,1996.5839 8156.3209,1982.3988 C 8172.8465,1961.6821 8190.7835,1933.0066 8201.9756,1909.4117 C 8225.5524,1859.708 8241.0717,1801.3778 8243.9164,1751.7752 C 8247.7116,1685.5985 8228.5022,1633.7371 8186.4362,1596.5903 C 8142.7024,1557.9707 8082.4488,1535.202 8003.4093,1527.4281 C 7962.9997,1523.4535 7921.3528,1523.4664 7878.4093,1527.4668 C 7808.6589,1533.9644 7744.2961,1552.0102 7687.1987,1581.0779 C 7609.3495,1620.71 7555.2238,1674.8839 7518.4155,1750.0112 C 7490.1023,1807.7996 7472.9176,1880.4142 7475.3707,1931.8988 C 7477.8148,1983.1971 7493.7323,2022.1155 7525.8118,2055.2279 C 7574.7783,2105.7711 7649.4761,2134.4286 7746.4093,2139.8594 C 7764.9903,2140.9004 7807.1879,2140.376 7827.4093,2138.8527 z M 3573.9467,2278.6232 C 3572.5923,2277.9378 3570.928,2275.8069 3570.2483,2273.8879 C 3569.5686,2271.9689 3562.4947,2246.3238 3554.5285,2216.8988 C 3534.114,2141.4935 3477.0426,1931.3214 3437.8994,1787.3988 C 3430.2705,1759.3488 3413.3951,1697.2488 3400.3984,1649.3988 C 3375.0408,1556.0398 3367.3337,1527.6764 3344.3265,1443.0452 C 3333.1305,1401.8608 3329.802,1388.2926 3330.5888,1387.0452 C 3331.5438,1385.5312 3343.1925,1385.3785 3475.5725,1385.1455 C 3589.9541,1384.9442 3619.8712,1385.1505 3621.2381,1386.1501 C 3622.5073,1387.0781 3644.2028,1472.9016 3703.9653,1713.4033 C 3748.5191,1892.7008 3785.2133,2040.1863 3785.5081,2041.1488 C 3786.2505,2043.5729 3789.1531,2043.3368 3791.6547,2040.6488 C 3792.8064,2039.4113 3820.4474,2003.2847 3853.079,1960.3675 C 3885.7107,1917.4503 3940.0843,1845.9761 3973.9093,1801.536 C 4007.7343,1757.0958 4042.8343,1710.967 4051.9093,1699.0275 C 4080.0507,1662.0033 4161.2159,1555.3083 4175.244,1536.8988 C 4182.5783,1527.2739 4211.1635,1489.7094 4238.7665,1453.4222 C 4266.3695,1417.135 4289.9563,1386.8884 4291.1816,1386.2076 C 4292.9213,1385.2409 4323.8931,1384.962 4432.5775,1384.9343 C 4509.12,1384.9148 4572.4575,1385.172 4573.3275,1385.5059 C 4574.1975,1385.8397 4574.9073,1386.8522 4574.9049,1387.7559 C 4574.9025,1388.6595 4543.5126,1428.5489 4505.1494,1476.3989 C 4466.7863,1524.2489 4403.4711,1603.2238 4364.449,1651.8988 C 4325.4269,1700.5738 4278.1578,1759.5238 4259.4066,1782.8988 C 4185.1257,1875.4965 4090.0791,1994.0817 3979.6815,2131.8988 C 3901.5036,2229.4938 3862.8722,2276.9663 3860.67,2278.1472 C 3857.6097,2279.7883 3848.7761,2279.8949 3716.9093,2279.8825 C 3606.7473,2279.8722 3575.8776,2279.6002 3573.9467,2278.6232 z M 4568.1593,2278.8753 C 4566.8687,2278.3521 4565.9093,2277.1012 4565.9093,2275.9415 C 4565.9093,2274.8296 4569.9841,2258.5026 4574.9644,2239.6593 C 4579.9447,2220.816 4586.2753,2196.8488 4589.0323,2186.3988 C 4591.7894,2175.9488 4608.2122,2113.8488 4625.5274,2048.3988 C 4667.6717,1889.0973 4665.3389,1897.9125 4677.792,1850.8988 C 4683.838,1828.0738 4698.2955,1773.3988 4709.9199,1729.3988 C 4721.5442,1685.3988 4738.8608,1619.9238 4748.401,1583.8988 C 4757.9413,1547.8738 4773.4599,1489.1489 4782.8867,1453.3989 C 4796.2422,1402.7501 4800.4796,1388.0125 4802.0787,1386.6489 C 4804.0106,1385.0015 4811.8507,1384.8989 4935.829,1384.8989 C 5045.0874,1384.8989 5067.843,1385.1299 5069.3811,1386.2546 C 5071.4968,1387.8017 5074.5914,1375.1616 5041.3137,1500.8989 C 5020.5469,1579.3644 5016.9819,1592.8445 4963.428,1795.3988 C 4942.1973,1875.6988 4923.2688,1947.2488 4921.3647,1954.3988 C 4919.4606,1961.5488 4915.4065,1976.8488 4912.3557,1988.3988 C 4909.3049,1999.9488 4901.6893,2028.7488 4895.4322,2052.3988 C 4889.175,2076.0488 4875.1972,2128.9238 4864.3703,2169.8988 C 4837.5928,2271.2402 4835.9546,2277.2531 4834.8092,2278.3988 C 4833.5073,2279.7012 4571.3524,2280.1696 4568.1593,2278.8753 z M 6528.1593,2278.8676 C 6526.9218,2278.3702 6525.9093,2277.1472 6525.9093,2276.1498 C 6525.9093,2275.1524 6531.2704,2254.1004 6537.8229,2229.3676 C 6544.3754,2204.6347 6558.3467,2151.7738 6568.8703,2111.8988 C 6579.3939,2072.0238 6589.339,2034.4488 6590.9705,2028.3988 C 6593.3702,2019.5003 6614.8648,1938.2677 6625.3693,1898.3988 C 6627.5658,1890.062 6633.4702,1867.7393 6672.4501,1720.3988 C 6680.3074,1690.6988 6694.2292,1638.0488 6703.3874,1603.3988 C 6712.5456,1568.7488 6722.9069,1529.5988 6726.4126,1516.3989 C 6729.9183,1503.1989 6738.2441,1471.6989 6744.9145,1446.3989 C 6760.2847,1388.1019 6760.5667,1387.1526 6762.8815,1385.9138 C 6764.1367,1385.242 6809.1963,1384.8989 6896.1524,1384.8989 C 7006.0407,1384.8989 7027.8346,1385.1238 7029.4074,1386.2738 C 7031.5665,1387.8526 7033.2762,1380.6233 7009.3935,1470.8989 C 7002.0455,1498.6739 6988.7807,1548.8488 6979.916,1582.3988 C 6971.0514,1615.9488 6961.8185,1650.8238 6959.3984,1659.8988 C 6956.9784,1668.9738 6945.7276,1711.4988 6934.3967,1754.3988 C 6923.0659,1797.2988 6907.7757,1855.1238 6900.4186,1882.8988 C 6893.0615,1910.6738 6879.8436,1960.6238 6871.0457,1993.8988 C 6862.2477,2027.1738 6848.9157,2077.5738 6841.4189,2105.8988 C 6833.9222,2134.2238 6821.0323,2183.003 6812.7746,2214.2969 C 6804.5169,2245.5909 6797.2316,2272.7969 6796.585,2274.7548 C 6795.7859,2277.1741 6794.6084,2278.5364 6792.9093,2279.007 C 6789.1149,2280.058 6530.7824,2279.922 6528.1593,2278.8676 z M 8705.1593,2278.8739 C 8703.7698,2278.3115 8702.9093,2277.1095 8702.9093,2275.7308 C 8702.9093,2274.5029 8710.3634,2245.3509 8719.4739,2210.9486 C 8736.2015,2147.7834 8750.7783,2092.6809 8788.3996,1950.3988 C 8799.7429,1907.4988 8817.0647,1842.0238 8826.8924,1804.8988 C 8836.7201,1767.7738 8851.066,1713.5488 8858.7722,1684.3988 C 8874.6955,1624.1657 8919.4889,1454.7376 8930.0224,1414.8989 C 8935.224,1395.226 8937.5575,1387.9481 8939.08,1386.6489 C 8941.0101,1385.002 8948.6904,1384.8989 9069.473,1384.8989 C 9159.9023,1384.8989 9198.5213,1385.2206 9200.2054,1385.988 C 9201.6632,1386.6522 9208.1467,1395.5274 9216.8245,1408.738 C 9230.2168,1429.1254 9297.618,1532.036 9455.6585,1773.3988 C 9600.8835,1995.1895 9589.0107,1977.342 9591.5715,1977.7068 C 9594.1076,1978.0682 9593.1756,1980.9554 9604.9049,1936.3988 C 9609.3932,1919.3488 9617.9539,1886.9488 9623.9288,1864.3988 C 9629.9036,1841.8488 9638.2328,1810.3488 9642.4382,1794.3988 C 9646.6436,1778.4488 9650.9779,1762.0238 9652.07,1757.8988 C 9653.1622,1753.7738 9660.4908,1726.0988 9668.3558,1696.3988 C 9691.6829,1608.3106 9713.9581,1524.061 9716.5814,1513.9988 C 9739.3901,1426.5109 9750.0265,1388.2611 9751.9945,1386.6489 C 9754.0032,1385.0035 9761.4117,1384.8989 9875.9383,1384.8989 C 9942.9323,1384.8989 9998.457,1385.172 9999.327,1385.5059 C 10000.197,1385.8397 10000.909,1387.176 10000.909,1388.4753 C 10000.909,1389.7747 9990.7563,1429.214 9978.3463,1476.1183 C 9965.9363,1523.0226 9943.4093,1608.1988 9928.2863,1665.3988 C 9913.1633,1722.5988 9892.7488,1799.7738 9882.9206,1836.8988 C 9841.3789,1993.8184 9822.4868,2065.2878 9795.9533,2165.8988 C 9780.5057,2224.4738 9767.22,2273.8374 9766.4295,2275.5957 C 9765.3571,2277.9812 9764.1569,2278.9429 9761.7008,2279.3848 C 9759.8905,2279.7105 9699.132,2279.8468 9626.6819,2279.6879 L 9494.9545,2279.3988 L 9492.5515,2276.8988 C 9491.2298,2275.5238 9437.5196,2194.9738 9373.1954,2097.8988 C 9241.3747,1898.9613 9215.8401,1860.4381 9164.0694,1782.3988 C 9144.0018,1752.1488 9123.8317,1721.6473 9119.247,1714.6178 C 9110.9693,1701.9259 9108.7586,1699.6495 9106.7052,1701.7029 C 9106.1168,1702.2913 9098.0416,1731.4885 9088.7602,1766.5857 C 9079.4789,1801.6829 9068.5491,1842.9988 9064.4718,1858.3988 C 9060.3945,1873.7988 9050.2176,1912.2738 9041.8566,1943.8988 C 9021.9797,2019.0811 8999.6822,2103.3645 8990.4008,2138.3988 C 8986.321,2153.7988 8976.426,2191.1481 8968.4119,2221.3973 C 8960.3979,2251.6464 8953.1653,2277.0714 8952.3395,2277.8973 C 8951.0229,2279.2141 8935.8625,2279.4225 8829.1237,2279.5916 C 8757.7632,2279.7047 8706.4785,2279.4077 8705.1593,2278.8739 z M 735.40942,1326.834 C 599.64091,1321.1106 479.16028,1300.5922 375.39278,1265.5215 C 251.96288,1223.8054 160.55628,1165.2161 98.27938,1087.8989 C 49.594583,1027.4564 16.680483,945.38717 7.440883,861.39887 C 6.533283,853.14887 5.369883,844.82387 4.855581,842.89887 C 3.655381,838.40617 3.665881,778.68477 4.867881,773.39887 C 5.368183,771.19887 6.504883,762.64887 7.393983,754.39887 C 19.913383,638.23017 68.010683,519.78857 143.47158,419.30167 C 167.59218,387.18167 189.05108,362.68627 221.37568,330.37367 C 329.85958,221.93007 467.28798,140.42447 641.40942,81.261567 C 760.19814,40.899667 875.20899,19.721267 1026.4094,10.366867 C 1040.1594,9.5161667 1055.2344,8.3914667 1059.9094,7.8676667 C 1071.056,6.6186667 1232.0283,6.6070667 1242.4356,7.8545667 C 1246.8212,8.3802667 1261.8844,9.5079667 1275.9094,10.360467 C 1460.7019,21.594267 1594.0532,54.238667 1689.9094,111.70767 C 1798.1633,176.60957 1856.2596,263.05097 1866.2386,374.06797 C 1867.0661,383.27397 1868.4234,382.73087 1834.4094,386.80417 C 1817.5656,388.82127 1767.4937,394.88257 1738.9094,398.36457 C 1723.2344,400.27397 1689.7094,404.33497 1664.4094,407.38887 C 1639.1094,410.44277 1609.4094,414.04507 1598.4094,415.39407 C 1587.4094,416.74307 1567.1594,419.21507 1553.4094,420.88737 C 1539.6594,422.55967 1516.0344,425.44997 1500.9094,427.31017 C 1477.5327,430.18527 1473.0929,430.49317 1471.2984,429.36367 C 1469.7167,428.36807 1468.6196,425.57307 1466.923,418.21687 C 1458.1936,380.36677 1435.4464,342.70877 1405.715,316.88647 C 1349.7021,268.23827 1273.6531,240.45587 1170.4094,230.92387 C 1136.1115,227.75727 1072.2396,226.81567 1033.9094,228.91157 C 896.23726,236.43927 780.7922,267.20027 679.44619,323.36037 C 548.24925,396.06217 464.18908,505.58657 424.98998,654.89887 C 403.07208,738.38537 399.74268,814.42257 415.42418,873.35907 C 426.81618,916.17417 448.40308,954.62457 478.79648,986.23687 C 486.67278,994.42907 502.87642,1008.3413 516.14668,1018.3052 C 595.12747,1077.6074 709.29893,1107.8886 853.90942,1107.8886 C 964.94003,1107.8886 1076.3871,1089.1712 1207.5067,1048.5023 C 1254.623,1033.8884 1331.5035,1004.3198 1336.3721,998.94007 C 1337.3717,997.83547 1345.0691,970.57907 1355.3498,931.74027 C 1381.5521,832.75187 1379.6123,840.88597 1377.401,839.26907 C 1375.8278,838.11867 1340.4988,837.89887 1157.1869,837.89887 C 957.67233,837.89887 938.79353,837.76047 938.23073,836.29367 C 937.89193,835.41087 942.85653,814.82337 949.26313,790.54367 C 988.56443,641.60027 992.92163,625.54277 994.51343,623.78387 C 996.18303,621.93897 1005.5634,621.90207 1410.7065,622.14767 C 1798.0029,622.38237 1825.2611,622.50927 1826.2536,624.08267 C 1827.068,625.37387 1825.0668,634.23677 1817.6736,662.08267 C 1812.3705,682.05657 1797.1484,739.57387 1783.8469,789.89887 C 1702.9553,1095.9441 1694.0724,1129.0613 1692.3707,1130.9417 C 1689.9637,1133.6013 1639.2488,1158.6518 1614.4094,1169.4505 C 1535.6777,1203.6781 1442.3136,1234.2464 1330.4094,1262.4347 C 1180.699,1300.1464 1043.9122,1320.677 900.90942,1326.8993 C 875.22411,1328.0169 762.41445,1327.9724 735.40942,1326.834 z M 4728.4093,1326.8245 C 4694.9028,1325.6582 4642.5476,1322.5158 4621.4093,1320.4024 C 4618.6593,1320.1275 4609.2093,1319.2023 4600.4093,1318.3464 C 4553.4246,1313.777 4506.1802,1306.1476 4467.4093,1296.8685 C 4429.9661,1287.9071 4381.454,1270.3255 4343.4093,1251.9287 C 4297.3672,1229.6648 4264.3311,1206.6562 4235.1792,1176.5502 C 4198.2629,1138.4255 4174.2655,1095.5495 4166.5322,1053.8989 C 4161.3314,1025.888 4161.9307,971.00647 4167.9517,923.89887 C 4176.3601,858.11217 4190.0382,792.19547 4214.4331,699.89887 C 4216.3956,692.47387 4224.3152,662.54887 4232.0321,633.39887 C 4239.7491,604.24887 4246.8948,577.24887 4247.9114,573.39887 C 4248.928,569.54887 4256.9649,539.17387 4265.7712,505.89887 C 4274.5774,472.62387 4291.0641,410.29887 4302.4082,367.39887 C 4313.7524,324.49887 4330.4714,261.27387 4339.5615,226.89887 C 4348.6517,192.52377 4362.5666,139.87377 4370.4836,109.89877 C 4388.8012,40.545367 4390.914,32.780967 4392.0485,30.648767 C 4392.9304,28.991467 4403.1126,28.898767 4584.322,28.898767 C 4740.1587,28.898767 4775.8647,29.140167 4776.744,30.199567 C 4777.5245,31.140067 4777.4012,33.148167 4776.2988,37.449567 C 4775.4602,40.721667 4766.5057,74.673767 4756.4001,112.89877 C 4746.2944,151.12377 4726.725,225.14887 4712.9126,277.39887 C 4699.1002,329.64887 4682.6704,391.74887 4676.4021,415.39887 C 4670.1337,439.04887 4657.7536,485.84887 4648.8908,519.39887 C 4640.0279,552.94887 4623.6175,615.04887 4612.4231,657.39887 C 4580.4926,778.19717 4573.2366,807.42447 4565.0052,848.39887 C 4553.5553,905.39477 4551.3051,931.44727 4555.8931,953.89887 C 4561.7232,982.42897 4572.889,1003.5225 4593.4093,1024.7713 C 4610.3555,1042.3191 4628.6756,1055.7191 4651.1622,1067.0139 C 4706.1249,1094.621 4781.1874,1107.903 4882.2141,1107.8974 C 4971.0753,1107.8925 5044.6423,1098.1042 5103.2148,1078.4926 C 5160.6797,1059.252 5217.1051,1024.1285 5247.1462,988.89887 C 5266.9082,965.72367 5278.7181,943.90007 5296.4895,897.71747 C 5314.2053,851.67937 5328.7157,803.85457 5354.3854,706.89887 C 5361.8846,678.57387 5369.9954,647.97387 5372.4094,638.89887 C 5374.8234,629.82387 5383.9925,595.17387 5392.7852,561.89887 C 5401.5778,528.62387 5415.1373,477.32387 5422.9174,447.89887 C 5430.6975,418.47387 5437.8951,391.24887 5438.9122,387.39887 C 5440.9484,379.69097 5473.0587,258.32547 5497.9125,164.39877 C 5506.6446,131.39877 5518.1302,87.973767 5523.4361,67.898767 C 5528.742,47.823767 5533.5501,30.835167 5534.1208,30.146267 C 5534.9468,29.149167 5574.2474,28.945167 5726.7839,29.146267 L 5918.4093,29.398767 L 5918.7076,31.960667 C 5918.8716,33.369667 5914.0626,53.169667 5908.0209,75.960667 C 5901.9792,98.751567 5889.8358,144.62377 5881.0355,177.89877 C 5872.2353,211.17387 5857.8342,265.62387 5849.0331,298.89887 C 5840.232,332.17387 5821.7834,401.92387 5808.0363,453.89887 C 5794.2891,505.87387 5773.7631,583.49887 5762.4229,626.39887 C 5727.5152,758.45457 5717.9473,792.24927 5699.7116,847.89887 C 5670.4852,937.08927 5643.7712,998.33547 5615.1208,1041.8379 C 5548.0977,1143.6047 5443.5918,1216.393 5291.9093,1266.9547 C 5182.5417,1303.4111 5075.6401,1320.9218 4925.9093,1326.9063 C 4897.8717,1328.0269 4761.3273,1327.9704 4728.4093,1326.8245 z M 2140.9123,1305.4023 C 2139.3511,1303.5213 2130.7288,1337.1234 2198.9043,1079.3989 C 2260.3521,847.10737 2285.945,750.34407 2308.4032,665.39887 C 2319.7452,622.49887 2334.1449,568.04887 2340.4025,544.39887 C 2380.372,393.33737 2398.6774,324.14457 2410.907,277.89887 C 2418.5429,249.02387 2436.3354,181.74877 2450.4459,128.39877 C 2464.5563,75.048767 2476.5632,30.836267 2477.1278,30.148767 C 2477.9457,29.152767 2554.687,28.900167 2854.7817,28.905767 C 3209.969,28.912367 3289.7284,29.387067 3354.4093,31.879367 C 3463.3506,36.077067 3517.8958,40.711467 3561.9093,49.509667 C 3605.4234,58.208067 3644.7512,71.102067 3680.6399,88.436667 C 3731.1863,112.85117 3772.1398,144.63977 3803.0817,183.47767 C 3823.3216,208.88247 3839.5628,243.26867 3846.2908,274.96067 C 3850.7788,296.10137 3851.412,303.09507 3851.3551,330.89887 C 3851.2992,358.26777 3850.3358,368.99567 3845.7877,392.89887 C 3838.3595,431.93847 3822.7171,477.36997 3804.9846,511.40697 C 3781.7339,556.03577 3751.546,594.65837 3712.934,629.17717 C 3652.1376,683.52867 3590.2156,721.36767 3510.9093,752.62957 C 3449.9155,776.67287 3390.4877,793.57367 3332.4296,803.38767 C 3311.5278,806.92087 3303.4027,807.95187 3265.9093,811.82857 C 3226.0569,815.94917 3161.169,819.95157 3103.4093,821.85187 C 3086.3593,822.41287 3066.3343,823.15157 3058.9093,823.49357 C 3051.4843,823.83557 2957.5627,824.40417 2850.1946,824.75707 C 2678.5629,825.32127 2654.8021,825.58007 2653.5076,826.89887 C 2651.945,828.49067 2650.4547,833.98657 2607.4081,996.89887 C 2525.2068,1307.994 2526.2304,1304.1909 2524.3193,1305.5883 C 2522.8562,1306.6582 2487.5981,1306.8989 2332.3407,1306.8989 C 2164.7008,1306.8989 2142.007,1306.7215 2140.9123,1305.4023 z M 3015.9093,607.91927 C 3107.1718,605.68237 3179.1697,599.84427 3220.7231,591.31157 C 3253.8872,584.50157 3293.721,570.48147 3322.4093,555.52157 C 3384.3064,523.24457 3424.5872,479.24137 3438.9012,428.26457 C 3442.1961,416.53047 3444.9123,399.03977 3444.9034,389.61447 C 3444.8948,380.51477 3442.3326,365.01837 3439.37,356.14727 C 3425.331,314.10977 3379.2403,279.16567 3315.9093,262.54447 C 3260.6454,248.04057 3194.44,244.93337 2940.1824,244.91067 L 2807.9554,244.89887 L 2806.5205,247.14887 C 2805.7312,248.38637 2798.5476,274.14887 2790.5569,304.39887 C 2754.7366,440.00097 2732.9041,522.57217 2722.3683,562.29057 C 2713.753,594.76887 2711.2321,605.63347 2711.9852,607.04057 C 2712.9467,608.83717 2717.3491,608.89867 2844.6945,608.89317 C 2917.1376,608.88997 2994.1843,608.45177 3015.9093,607.91927 z M 6764.8624,1305.3424 C 6763.4977,1303.698 6762.6909,1306.8566 6811.5019,1122.7364 C 6821.076,1086.622 6828.9093,1055.936 6828.9093,1054.5454 C 6828.9093,1053.1547 6828.3468,1051.6529 6827.6593,1051.2079 C 6826.9718,1050.763 6651.3655,1050.1739 6437.423,1049.8989 C 6066.2948,1049.4219 6048.421,1049.3176 6048.0958,1047.6288 C 6047.9083,1046.6552 6052.775,1026.8552 6058.9107,1003.6287 C 6065.0463,980.40227 6077.0202,935.07387 6085.5192,902.89887 C 6094.0183,870.72387 6101.6688,842.48977 6102.5204,840.15647 C 6103.9512,836.23637 6108.9806,832.09957 6168.7391,785.68847 C 6204.3077,758.06437 6257.4843,716.74497 6286.9093,693.86777 C 6316.3343,670.99047 6402.9593,603.67757 6479.4093,544.28357 C 6555.8593,484.88947 6673.0843,393.81567 6739.9093,341.89717 C 6806.7343,289.97867 6890.6593,224.77977 6926.4093,197.01067 C 7024.9711,120.45187 7071.8633,83.996267 7110.9093,53.574267 C 7133.221,36.190467 7147.7521,25.539767 7150.0238,24.904867 C 7155.7791,23.296367 8600.4339,24.023367 8602.0461,25.635567 C 8603.0285,26.617967 8602.9162,28.057867 8601.5001,32.635567 C 8599.2936,39.768767 8591.9557,58.562067 8586.9505,69.898767 C 8584.8865,74.573767 8581.4944,82.813967 8579.4124,88.210367 C 8577.3304,93.606667 8574.6601,99.456667 8573.4783,101.21037 L 8571.3296,104.39877 L 8004.5389,104.89877 C 7470.7865,105.36967 7437.675,105.49867 7436.4949,107.11257 C 7435.4415,108.55317 7429.3337,130.73757 7418.3824,172.89877 C 7416.9131,178.55567 7416.4765,181.98417 7417.0771,183.14877 C 7417.9351,184.81227 7445.4846,184.89877 7974.3627,184.89877 C 8280.3734,184.89877 8531.4575,185.17197 8532.3275,185.50577 C 8533.1975,185.83957 8533.9093,186.71197 8533.9093,187.44447 C 8533.9093,188.65367 8522.0878,213.93517 8516.3958,224.89887 C 8504.0718,248.63687 8495.4278,263.95537 8493.7607,265.01177 C 8493.0152,265.48427 8246.6511,265.87507 7944.2307,265.88347 C 7457.3501,265.89707 7395.8838,266.06717 7394.5462,267.40477 C 7393.718,268.23297 7392.8054,269.69547 7392.5183,270.65477 C 7390.2334,278.28817 7373.9093,341.16667 7373.9093,342.33417 C 7373.9093,343.15597 7374.7797,344.29427 7375.8436,344.86367 C 7377.17,345.57347 7545.4372,345.89887 7911.2845,345.89887 C 8253.2455,345.89887 8445.0055,346.24557 8445.3881,346.86457 C 8446.1955,348.17097 8443.1527,353.93167 8435.1269,366.29077 C 8431.4322,371.98037 8425.7093,380.96767 8422.4093,386.26247 C 8411.2388,404.18557 8402.3451,417.57387 8398.6722,421.99557 L 8395.0146,426.39887 L 7874.1144,426.65167 C 7379.7633,426.89167 7353.1374,426.99357 7351.7092,428.65167 C 7349.7688,430.90437 7331.6916,499.18877 7332.1,502.72277 L 7332.4093,505.39887 L 7833.1093,505.89887 C 8231.2175,506.29637 8334.0649,506.65437 8335.0566,507.64607 C 8336.053,508.64247 8335.8613,509.44717 8334.1039,511.64607 C 8331.924,514.37367 8319.8862,529.83087 8314.7323,536.52027 C 8313.26,538.43127 8310.56,541.73547 8308.7323,543.86297 C 8306.9047,545.99047 8303.8343,549.82847 8301.9093,552.39177 C 8293.0492,564.18997 8288.3443,570.02767 8281.1553,578.14227 L 8273.4093,586.88567 L 7792.7701,586.89227 C 7336.5043,586.89847 7312.0226,586.98757 7309.9951,588.64887 C 7306.8191,591.25107 7287.9682,663.05987 7289.862,665.34177 C 7291.0282,666.74697 7335.3706,666.89887 7744.5631,666.89887 C 8142.6017,666.89887 8198.041,667.07837 8198.5363,668.36917 C 8199.432,670.70347 8193.6731,677.03577 8157.3931,713.60827 L 8123.3769,747.89887 L 7695.6662,747.89887 L 7267.9554,747.89887 L 7266.5511,750.14887 C 7265.0638,752.53177 7253.1441,794.29847 7247.2631,817.73417 C 7245.4549,824.93967 7245.4566,825.09467 7247.3569,826.48417 C 7249.0169,827.69797 7304.7805,827.89887 7640.1318,827.89887 C 8002.7782,827.89887 8031.0178,828.01817 8031.6067,829.55267 C 8032.2622,831.26077 8032.0804,831.44427 8018.3782,842.89887 C 8014.7597,845.92387 8009.4112,850.42387 8006.4928,852.89887 C 8003.5744,855.37387 7998.6135,859.42387 7995.4686,861.89887 C 7992.3238,864.37387 7987.4239,868.31777 7984.58,870.66317 C 7981.7361,873.00847 7976.0343,877.48467 7971.9093,880.61027 C 7967.7843,883.73577 7962.5403,887.89187 7960.256,889.84597 C 7957.9717,891.79997 7953.9671,894.97387 7951.3568,896.89887 C 7948.7466,898.82387 7944.9568,901.84247 7942.9352,903.60697 C 7940.9135,905.37147 7938.0264,907.28397 7936.5193,907.85697 C 7934.6379,908.57227 7822.7052,908.89887 7579.3673,908.89887 L 7224.9554,908.89887 L 7223.5004,911.14887 C 7221.4441,914.32867 7203.7307,981.53627 7204.1024,984.74787 L 7204.4093,987.39887 L 7512.6093,987.89887 C 7727.1137,988.24687 7821.1306,988.72007 7821.8659,989.45537 C 7823.8483,991.43787 7816.9816,996.44987 7780.8419,1019.3989 C 7766.0923,1028.765 7741.3526,1044.6869 7724.7709,1055.4849 C 7719.4698,1058.9369 7711.9435,1063.3673 7708.0459,1065.3301 L 7700.9592,1068.8989 L 7442.545,1068.8989 C 7196.5912,1068.8989 7184.0252,1068.9844 7181.94,1070.673 C 7179.7186,1072.4717 7175.2686,1086.5276 7172.8684,1099.327 C 7172.257,1102.5874 7169.5445,1113.6124 7166.8407,1123.827 C 7161.5262,1143.9041 7161.0535,1147.3565 7163.4911,1148.2919 C 7164.3611,1148.6258 7251.5486,1148.9058 7357.2411,1148.9142 C 7483.3069,1148.9243 7549.9253,1149.2726 7550.9093,1149.9268 C 7553.558,1151.6878 7546.915,1155.945 7524.0211,1167.1586 C 7490.8506,1183.4056 7464.4771,1195.9006 7463.3905,1195.8835 C 7462.8508,1195.875 7454.0843,1199.8602 7443.9093,1204.7395 C 7418.0772,1217.127 7400.3779,1225.0584 7392.0027,1228 C 7386.8051,1229.8255 7381.8529,1229.8989 7263.8242,1229.8989 C 7153.5466,1229.8989 7140.8922,1230.0588 7139.4807,1231.4703 C 7138.6164,1232.3346 7137.9069,1233.1221 7137.9039,1233.2203 C 7137.9009,1233.3185 7133.6537,1249.3596 7128.4658,1268.8671 C 7121.9074,1293.5272 7118.4989,1304.7258 7117.2801,1305.6171 C 7115.8703,1306.6479 7081.3253,1306.8989 6940.8406,1306.8989 C 6783.9642,1306.8989 6766.0225,1306.7402 6764.8624,1305.3424 z M 6887.2528,833.64887 C 6888.0171,832.41137 6890.9353,822.62387 6893.7376,811.89887 C 6896.54,801.17387 6904.7325,770.12387 6911.9432,742.89887 C 6924.7306,694.61817 6942.8059,626.25967 6970.9085,519.89887 C 6978.5379,491.02387 6988.1826,454.57387 6992.3412,438.89887 C 6996.4998,423.22387 6999.9039,409.16137 6999.9058,407.64887 C 6999.9104,404.04097 6997.7557,404.07157 6993.0532,407.74627 C 6978.415,419.18507 6515.4757,782.75087 6508.4093,788.35767 C 6503.4593,792.28527 6488.9468,803.71517 6476.1593,813.75757 C 6460.0812,826.38407 6452.9093,832.61517 6452.9093,833.95757 C 6452.9093,835.87327 6455.7611,835.89887 6669.3862,835.89887 L 6885.8632,835.89887 L 6887.2528,833.64887 z"
     id="path2384" />
</svg>
