<?xml version="1.0" encoding="UTF-8" standalone="no"?>
<!-- Created with Inkscape (http://www.inkscape.org/) -->
<svg
   xmlns:dc="http://purl.org/dc/elements/1.1/"
   xmlns:cc="http://creativecommons.org/ns#"
   xmlns:rdf="http://www.w3.org/1999/02/22-rdf-syntax-ns#"
   xmlns:svg="http://www.w3.org/2000/svg"
   xmlns="http://www.w3.org/2000/svg"
   xmlns:sodipodi="http://sodipodi.sourceforge.net/DTD/sodipodi-0.dtd"
   xmlns:inkscape="http://www.inkscape.org/namespaces/inkscape"
   id="svg2"
   sodipodi:version="0.32"
   inkscape:version="0.46"
   width="141.25"
   height="52.5"
   xml:space="preserve"
   sodipodi:docname="tu_logo.svg"
   inkscape:export-filename="/home/markus/vmgpu/trunk/Applications/ImageSegmentation/src/Logos/tu_logo.png"
   inkscape:export-xdpi="163.11505"
   inkscape:export-ydpi="163.11505"
   inkscape:output_extension="org.inkscape.output.svg.inkscape"><metadata
     id="metadata7"><rdf:RDF><cc:Work
         rdf:about=""><dc:format>image/svg+xml</dc:format><dc:type
           rdf:resource="http://purl.org/dc/dcmitype/StillImage" /></cc:Work></rdf:RDF></metadata><defs
     id="defs5"><inkscape:perspective
       sodipodi:type="inkscape:persp3d"
       inkscape:vp_x="0 : 526.18109 : 1"
       inkscape:vp_y="0 : 1000 : 0"
       inkscape:vp_z="744.09448 : 526.18109 : 1"
       inkscape:persp3d-origin="372.04724 : 350.78739 : 1"
       id="perspective9" /><clipPath
       clipPathUnits="userSpaceOnUse"
       id="clipPath21"><path
         d="M 0,41.492 L 112.876,41.492 L 112.876,0.06 L 0,0.06 L 0,41.492 z"
         id="path23" /></clipPath><clipPath
       clipPathUnits="userSpaceOnUse"
       id="clipPath37"><path
         d="M 0,41.492 L 112.876,41.492 L 112.876,0.06 L 0,0.06 L 0,41.492 z"
         id="path39" /></clipPath></defs><sodipodi:namedview
     inkscape:window-height="722"
     inkscape:window-width="642"
     inkscape:pageshadow="2"
     inkscape:pageopacity="0.0"
     guidetolerance="10.0"
     gridtolerance="10.0"
     objecttolerance="10.0"
     borderopacity="1.0"
     bordercolor="#666666"
     pagecolor="#ffffff"
     id="base"
     showgrid="false"
     inkscape:zoom="3.8300885"
     inkscape:cx="70.625"
     inkscape:cy="26.25"
     inkscape:window-x="587"
     inkscape:window-y="213"
     inkscape:current-layer="g11" /><g
     id="g11"
     inkscape:groupmode="layer"
     inkscape:label="tu_logo"
     transform="matrix(1.25,0,0,-1.25,0,52.5)"><path
       d="M 0,31.119 L 20.745,31.119 L 20.745,10.373 L 0,10.373 L 0,31.119 z"
       style="fill:#ee1952;fill-opacity:1;fill-rule:nonzero;stroke:none"
       id="path13" /><path
       d="M 22.819,31.119 L 43.565,31.119 L 43.565,10.373 L 22.819,10.373 L 22.819,31.119 z"
       style="fill:#ee1952;fill-opacity:1;fill-rule:nonzero;stroke:none"
       id="path15" /><g
       id="g17"><g
         id="g19"
         clip-path="url(#clipPath21)"><path
           d="M 45.641,31.119 L 66.385,31.119 L 66.385,10.373 L 45.641,10.373 L 45.641,31.119 z"
           style="fill:#ee1952;fill-opacity:1;fill-rule:nonzero;stroke:none"
           id="path25" /><path
           d="M 10.372,20.746 L 31.119,20.746 L 31.119,0.06 L 10.372,0.06 L 10.372,20.746 z"
           style="fill:#ee1952;fill-opacity:1;fill-rule:nonzero;stroke:none"
           id="path27" /></g></g><path
       d="M 35.268,41.492 L 56.012,41.492 L 56.012,20.746 L 35.268,20.746 L 35.268,41.492 z"
       style="fill:#ee1952;fill-opacity:1;fill-rule:nonzero;stroke:none"
       id="path29" /><path
       d="M 75.104,27.791 L 68.462,27.791 L 68.462,31.11 L 85.581,31.11 L 85.581,27.791 L 78.94,27.791 L 78.94,10.417 L 75.104,10.417 L 75.104,27.791"
       style="fill:#070a09;fill-opacity:1;fill-rule:nonzero;stroke:none"
       id="path31" /><g
       id="g33"><g
         id="g35"
         clip-path="url(#clipPath37)"><path
           d="M 104.828,18.021 C 104.828,16.774 104.604,15.649 104.156,14.646 C 103.708,13.643 103.097,12.79 102.321,12.09 C 101.546,11.387 100.631,10.848 99.57,10.469 C 98.511,10.088 97.359,9.898 96.115,9.898 C 94.873,9.898 93.722,10.088 92.661,10.469 C 91.601,10.848 90.678,11.387 89.895,12.09 C 89.109,12.79 88.497,13.643 88.061,14.646 C 87.621,15.649 87.403,16.774 87.403,18.021 L 87.403,31.11 L 91.241,31.11 L 91.241,18.153 C 91.241,17.648 91.321,17.117 91.485,16.562 C 91.648,16.008 91.919,15.497 92.298,15.029 C 92.676,14.563 93.177,14.178 93.801,13.877 C 94.423,13.576 95.194,13.425 96.115,13.425 C 97.035,13.425 97.808,13.576 98.431,13.877 C 99.054,14.178 99.556,14.563 99.934,15.029 C 100.312,15.497 100.582,16.008 100.746,16.562 C 100.909,17.117 100.991,17.648 100.991,18.153 L 100.991,31.11 L 104.828,31.11 L 104.828,18.021"
           style="fill:#070a09;fill-opacity:1;fill-rule:nonzero;stroke:none"
           id="path41" /><path
           d="M 83.257,7.566 C 82.496,7.895 81.511,8.052 80.723,8.052 C 78.43,8.052 77.162,6.609 77.162,4.734 C 77.162,2.873 78.401,1.471 80.497,1.471 C 81.032,1.471 81.456,1.523 81.793,1.602 L 81.793,3.987 L 79.71,3.987 L 79.71,5.43 L 83.679,5.43 L 83.679,0.5 C 82.638,0.238 81.553,0.028 80.497,0.028 C 77.316,0.028 75.106,1.51 75.106,4.604 C 75.106,7.737 77.162,9.494 80.497,9.494 C 81.638,9.494 82.538,9.35 83.383,9.113 L 83.257,7.566"
           style="fill:#070a09;fill-opacity:1;fill-rule:nonzero;stroke:none"
           id="path43" /><path
           d="M 85.62,6.938 L 87.296,6.938 L 87.296,5.403 L 87.324,5.403 C 87.408,6.033 88.182,7.095 89.308,7.095 C 89.491,7.095 89.689,7.095 89.885,7.042 L 89.885,5.272 C 89.717,5.363 89.379,5.416 89.04,5.416 C 87.507,5.416 87.507,3.633 87.507,2.664 L 87.507,0.186 L 85.62,0.186 L 85.62,6.938"
           style="fill:#070a09;fill-opacity:1;fill-rule:nonzero;stroke:none"
           id="path45" /><path
           d="M 93.587,1.312 C 94.164,1.312 94.614,1.549 94.909,1.916 C 95.219,2.296 95.304,2.781 95.304,3.306 L 94.487,3.306 C 93.644,3.306 92.391,3.175 92.391,2.139 C 92.391,1.563 92.911,1.312 93.587,1.312 z M 91.376,6.583 C 92.107,6.898 93.094,7.095 93.896,7.095 C 96.105,7.095 97.021,6.242 97.021,4.249 L 97.021,3.384 C 97.021,2.703 97.035,2.191 97.049,1.693 C 97.063,1.182 97.091,0.71 97.134,0.186 L 95.473,0.186 C 95.402,0.539 95.402,0.985 95.389,1.195 L 95.359,1.195 C 94.924,0.448 93.979,0.028 93.122,0.028 C 91.842,0.028 90.588,0.749 90.588,2.034 C 90.588,3.043 91.108,3.633 91.827,3.961 C 92.546,4.289 93.474,4.355 94.263,4.355 L 95.304,4.355 C 95.304,5.442 94.783,5.81 93.671,5.81 C 92.869,5.81 92.066,5.522 91.434,5.076 L 91.376,6.583"
           style="fill:#070a09;fill-opacity:1;fill-rule:nonzero;stroke:none"
           id="path47" /><path
           d="M 98.569,6.938 L 104.312,6.938 L 104.312,5.495 L 100.707,1.549 L 104.438,1.549 L 104.438,0.186 L 98.414,0.186 L 98.414,1.615 L 102.087,5.574 L 98.569,5.574 L 98.569,6.938"
           style="fill:#070a09;fill-opacity:1;fill-rule:nonzero;stroke:none"
           id="path49" /><path
           d="M 105.965,6.911 L 112.876,6.911 L 112.876,0.06 L 105.965,0.06 L 105.965,6.911 z"
           style="fill:#ee1952;fill-opacity:1;fill-rule:nonzero;stroke:none"
           id="path51" /></g></g></g></svg>